<svg xmlns="http://www.w3.org/2000/svg" width="76.626" height="61.301" viewBox="0 0 76.626 61.301">
  <path id="Icon_awesome-shipping-fast" data-name="Icon awesome-shipping-fast" d="M74.711,42.145H72.8V29.2a5.747,5.747,0,0,0-1.688-4.059L59.146,13.182a5.747,5.747,0,0,0-4.059-1.688h-5.28V5.747A5.748,5.748,0,0,0,44.06,0H13.41A5.748,5.748,0,0,0,7.663,5.747v5.747H.958A.961.961,0,0,0,0,12.452v1.916a.961.961,0,0,0,.958.958H33.524a.961.961,0,0,1,.958.958V18.2a.961.961,0,0,1-.958.958H4.789a.961.961,0,0,0-.958.958V22.03a.961.961,0,0,0,.958.958h24.9a.961.961,0,0,1,.958.958v1.916a.961.961,0,0,1-.958.958H.958A.961.961,0,0,0,0,27.777v1.916a.961.961,0,0,0,.958.958h24.9a.961.961,0,0,1,.958.958v1.916a.961.961,0,0,1-.958.958H7.663V49.807a11.494,11.494,0,1,0,22.988,0H45.976a11.494,11.494,0,1,0,22.988,0h5.747a1.921,1.921,0,0,0,1.916-1.916V44.06A1.921,1.921,0,0,0,74.711,42.145ZM19.157,55.554A5.747,5.747,0,1,1,24.9,49.807,5.748,5.748,0,0,1,19.157,55.554Zm38.313,0a5.747,5.747,0,1,1,5.747-5.747A5.748,5.748,0,0,1,57.47,55.554Zm9.578-24.9H49.807V17.241h5.28L67.048,29.2Z" fill="#64702e"/>
</svg>
