<svg xmlns="http://www.w3.org/2000/svg" width="58.863" height="58.863" viewBox="0 0 58.863 58.863">
  <path id="Icon_weather-time-3" data-name="Icon weather-time-3" d="M4.488,33.312A28.859,28.859,0,0,1,8.461,18.518,29.407,29.407,0,0,1,19.2,7.775,29.376,29.376,0,0,1,45.368,6.154a29.7,29.7,0,0,1,9.384,6.273,28.819,28.819,0,0,1,6.273,9.41A29.229,29.229,0,0,1,45.368,60.365a29.334,29.334,0,0,1-22.9,0,29.815,29.815,0,0,1-9.41-6.273,29.577,29.577,0,0,1-6.273-9.358A28.326,28.326,0,0,1,4.488,33.312Zm6.482,0a22.214,22.214,0,0,0,6.77,16.153,22.077,22.077,0,0,0,16.206,6.77,22.222,22.222,0,0,0,11.475-3.084,23.19,23.19,0,0,0,8.39-8.364,22.769,22.769,0,0,0,0-22.976,23.06,23.06,0,0,0-8.39-8.39,22.29,22.29,0,0,0-11.475-3.084,22.222,22.222,0,0,0-11.475,3.084,23.537,23.537,0,0,0-8.417,8.39A22.133,22.133,0,0,0,10.97,33.312Zm20.7,0V15.9a2.17,2.17,0,1,1,4.339,0V31.116h9.88a2.142,2.142,0,0,1,2.169,2.169,2.2,2.2,0,0,1-.627,1.542,2.036,2.036,0,0,1-1.542.653H34.286a2,2,0,0,1-.47.026,2.1,2.1,0,0,1-2.143-2.2Z" transform="translate(-4.488 -3.828)" fill="#fff"/>
</svg>
