<svg xmlns="http://www.w3.org/2000/svg" width="96" height="72" viewBox="0 0 96 72">
  <path id="Icon_metro-credit-card" data-name="Icon metro-credit-card" d="M89.571,5.784h-78a9.026,9.026,0,0,0-9,9v54a9.026,9.026,0,0,0,9,9h78a9.026,9.026,0,0,0,9-9v-54a9.026,9.026,0,0,0-9-9Zm-78,6h78a3.04,3.04,0,0,1,3,3v9h-84v-9a3.04,3.04,0,0,1,3-3Zm78,60h-78a3.04,3.04,0,0,1-3-3v-27h84v27a3.04,3.04,0,0,1-3,3Zm-75-18h6v12h-6Zm12,0h6v12h-6Zm12,0h6v12h-6Z" transform="translate(-2.571 -5.784)" fill="#64702e"/>
</svg>
