<svg xmlns="http://www.w3.org/2000/svg" width="56.34" height="56.34" viewBox="0 0 56.34 56.34">
  <path id="Icon_simple-whatsapp" data-name="Icon simple-whatsapp" d="M41.076,33.762c-.707-.352-4.148-2.035-4.789-2.268s-1.11-.352-1.58.352-1.81,2.263-2.216,2.728-.819.493-1.516.176a19.052,19.052,0,0,1-5.641-3.486,21.3,21.3,0,0,1-3.9-4.859c-.408-.7-.045-1.092.305-1.444.319-.317.707-.81,1.059-1.228a5.951,5.951,0,0,0,.7-1.164,1.29,1.29,0,0,0-.059-1.23c-.176-.352-1.578-3.8-2.164-5.179-.563-1.371-1.143-1.2-1.578-1.2-.4-.035-.871-.035-1.34-.035a2.646,2.646,0,0,0-1.871.843,7.837,7.837,0,0,0-2.453,5.81c0,3.416,2.512,6.726,2.862,7.219.35.458,4.941,7.5,11.972,10.529,1.676.7,2.981,1.127,4,1.477a9.712,9.712,0,0,0,4.413.284c1.347-.214,4.148-1.693,4.733-3.348a5.811,5.811,0,0,0,.423-3.345c-.174-.317-.634-.493-1.338-.81M28.313,51.058h-.038a23.483,23.483,0,0,1-11.867-3.24l-.845-.5L6.761,49.6,9.12,41.048l-.561-.88A23.282,23.282,0,0,1,44.821,11.446,22.977,22.977,0,0,1,51.65,27.855a23.311,23.311,0,0,1-23.322,23.2M48.171,8.1A28.5,28.5,0,0,0,28.276,0,27.911,27.911,0,0,0,3.981,41.875L0,56.34l14.871-3.878a28.316,28.316,0,0,0,13.4,3.4h.014A28.029,28.029,0,0,0,56.34,27.933a27.687,27.687,0,0,0-8.2-19.745" fill="#fff"/>
</svg>
